<svg width="211" height="48" viewBox="0 0 211 48" fill="none" xmlns="http://www.w3.org/2000/svg">
<path d="M44.888 37V11.0402H50.7475V20.7566H61.1685V11.0402H66.9909V37H61.1685V25.8002H50.7475V37H44.888ZM71.7167 45.1588L75.6848 36.3695L68.1936 18.6056H74.4981L78.7629 30.1021L82.9907 18.6056H89.0727L77.7987 45.1588H71.7167ZM101.133 37.445C99.971 37.445 98.8708 37.2102 97.8324 36.7404C96.794 36.2707 95.9657 35.5413 95.3476 34.5524V37H89.5994V11.0402H95.3476V21.0904C95.941 20.1261 96.7569 19.3968 97.7953 18.9023C98.8584 18.4079 99.971 18.1606 101.133 18.1606C102.765 18.1606 104.199 18.5809 105.435 19.4215C106.671 20.2374 107.635 21.3747 108.328 22.8334C109.045 24.2673 109.403 25.9115 109.403 27.7657C109.403 29.5458 109.069 31.1776 108.402 32.661C107.734 34.1197 106.782 35.2817 105.546 36.147C104.31 37.0124 102.839 37.445 101.133 37.445ZM99.427 32.4385C100.243 32.4385 100.96 32.2407 101.578 31.8451C102.196 31.4496 102.678 30.9056 103.024 30.2134C103.37 29.4964 103.544 28.6805 103.544 27.7657C103.544 26.7521 103.346 25.9115 102.95 25.2439C102.579 24.5517 102.085 24.0325 101.467 23.6863C100.849 23.3402 100.169 23.1671 99.427 23.1671C98.6606 23.1671 97.9683 23.3526 97.3502 23.7234C96.7322 24.0943 96.2377 24.6258 95.8668 25.3181C95.496 26.0104 95.3106 26.8386 95.3106 27.8028C95.3106 28.6929 95.4836 29.4964 95.8297 30.2134C96.1759 30.9056 96.658 31.4496 97.2761 31.8451C97.9189 32.2407 98.6359 32.4385 99.427 32.4385ZM111.076 37V18.6056H116.787V21.4612C117.43 20.5217 118.245 19.7429 119.234 19.1248C120.223 18.482 121.361 18.1606 122.646 18.1606V24.2055H121.052C119.618 24.2055 118.542 24.5269 117.825 25.1698C117.133 25.8126 116.787 26.8757 116.787 28.3591V37H111.076ZM127.009 16.9739C126.044 16.9739 125.216 16.6278 124.524 15.9355C123.832 15.2432 123.486 14.415 123.486 13.4508C123.486 12.4866 123.832 11.6583 124.524 10.9661C125.216 10.2738 126.044 9.92766 127.009 9.92766C128.022 9.92766 128.863 10.2738 129.531 10.9661C130.198 11.6583 130.532 12.4866 130.532 13.4508C130.532 14.415 130.198 15.2432 129.531 15.9355C128.863 16.6278 128.022 16.9739 127.009 16.9739ZM124.153 37V18.6056H129.864V37H124.153ZM139.905 37.445C138.175 37.445 136.691 37 135.455 36.11C134.219 35.2199 133.267 34.0455 132.599 32.5868C131.957 31.1034 131.635 29.4964 131.635 27.7657C131.635 26.0351 131.969 24.4404 132.636 22.9817C133.304 21.523 134.256 20.361 135.492 19.4957C136.728 18.6056 138.199 18.1606 139.905 18.1606C141.067 18.1606 142.167 18.4079 143.206 18.9023C144.244 19.3721 145.072 20.0767 145.69 21.0162V11.0402H151.439V37H145.69V34.4782C145.072 35.4919 144.257 36.2459 143.243 36.7404C142.229 37.2102 141.117 37.445 139.905 37.445ZM141.574 32.4385C142.34 32.4385 143.033 32.2531 143.651 31.8822C144.269 31.5114 144.763 30.9798 145.134 30.2875C145.505 29.5706 145.69 28.7423 145.69 27.8028C145.69 26.888 145.517 26.0845 145.171 25.3923C144.825 24.7 144.343 24.1561 143.725 23.7605C143.107 23.3649 142.39 23.1671 141.574 23.1671C140.956 23.1671 140.325 23.3155 139.683 23.6122C139.065 23.9089 138.545 24.4033 138.125 25.0956C137.705 25.7631 137.495 26.6532 137.495 27.7657C137.495 28.6311 137.655 29.4222 137.977 30.1392C138.323 30.8315 138.793 31.3877 139.386 31.808C140.004 32.2283 140.733 32.4385 141.574 32.4385ZM156.634 16.9739C155.669 16.9739 154.841 16.6278 154.149 15.9355C153.457 15.2432 153.11 14.415 153.11 13.4508C153.11 12.4866 153.457 11.6583 154.149 10.9661C154.841 10.2738 155.669 9.92766 156.634 9.92766C157.647 9.92766 158.488 10.2738 159.155 10.9661C159.823 11.6583 160.157 12.4866 160.157 13.4508C160.157 14.415 159.823 15.2432 159.155 15.9355C158.488 16.6278 157.647 16.9739 156.634 16.9739ZM153.778 37V18.6056H159.489V37H153.778ZM161.655 37V32.5127L169.294 23.2413H161.729V18.6056H175.784V23.093L167.959 32.3643H175.933V37H161.655ZM186.435 37.445C184.729 37.445 183.159 37.0865 181.725 36.3695C180.291 35.6278 179.141 34.54 178.276 33.106C177.41 31.6721 176.978 29.9043 176.978 27.8028C176.978 25.7013 177.398 23.9336 178.239 22.4996C179.079 21.0656 180.217 19.9902 181.651 19.2732C183.085 18.5315 184.679 18.1606 186.435 18.1606C188.264 18.1606 189.871 18.5438 191.256 19.3103C192.665 20.052 193.765 21.1275 194.556 22.5367C195.372 23.9212 195.78 25.5777 195.78 27.5061C195.78 27.7534 195.768 28.0253 195.743 28.322C195.743 28.594 195.718 28.8783 195.669 29.175H182.689C182.763 30.065 182.973 30.7697 183.319 31.2888C183.69 31.808 184.135 32.1913 184.654 32.4385C185.198 32.661 185.73 32.7723 186.249 32.7723C186.966 32.7723 187.572 32.6239 188.066 32.3272C188.561 32.0306 188.944 31.5732 189.216 30.9551H195.335C195.063 32.1171 194.519 33.1926 193.703 34.1815C192.887 35.1705 191.861 35.9616 190.625 36.555C189.414 37.1483 188.017 37.445 186.435 37.445ZM182.689 25.9856H189.884C189.884 24.972 189.55 24.1808 188.882 23.6122C188.215 23.0435 187.374 22.7592 186.36 22.7592C185.371 22.7592 184.556 23.0559 183.913 23.6493C183.27 24.2179 182.862 24.9967 182.689 25.9856ZM197.379 37V18.6056H203.09V21.4612C203.733 20.5217 204.549 19.7429 205.538 19.1248C206.527 18.482 207.664 18.1606 208.949 18.1606V24.2055H207.355C205.921 24.2055 204.845 24.5269 204.128 25.1698C203.436 25.8126 203.09 26.8757 203.09 28.3591V37H197.379Z" fill="#84CA5B"/>
<path fill-rule="evenodd" clip-rule="evenodd" d="M17.5606 20.3595C17.436 20.8244 17.7864 21.281 18.2677 21.281C18.599 21.281 18.889 21.0584 18.9748 20.7384L21.6716 10.6736C21.8409 10.0418 22.4134 9.60254 23.0674 9.60254H33.1556C34.1014 9.60254 34.7922 10.496 34.5541 11.4113L27.5056 38.5121C27.34 39.1489 26.7651 39.5934 26.1071 39.5934H16.0062C15.067 39.5934 14.3774 38.7116 14.6038 37.8001L16.9168 28.4855C17.032 28.0219 16.6812 27.5734 16.2036 27.5734C15.8654 27.5734 15.5708 27.8042 15.4899 28.1326L12.9389 38.4938C12.7799 39.1395 12.2007 39.5934 11.5357 39.5934H1.44579C0.500041 39.5934 -0.190769 38.6999 0.0472841 37.7846L7.09575 10.6838C7.26137 10.047 7.83627 9.60254 8.49425 9.60254H18.5597C19.5099 9.60254 20.2014 10.5038 19.9555 11.4216L17.5606 20.3595ZM15.0934 38.0487L17.6634 28.4574C17.8646 27.7065 17.2988 26.9691 16.5214 26.9691H4.75821C3.76052 26.9691 3.25257 25.7704 3.94651 25.0536L18.0523 10.4827C18.6179 9.89843 19.5904 10.4494 19.3799 11.2349L16.925 20.397C16.7238 21.1479 17.2896 21.8853 18.067 21.8853H29.7407C30.7335 21.8853 31.2435 23.074 30.5594 23.7935L16.2946 38.7958C15.7317 39.3878 14.882 38.8378 15.0934 38.0487Z" fill="#84CA5B"/>
</svg>
